<svg xmlns="http://www.w3.org/2000/svg" fill="none" viewBox="0 0 319 319">
  <g clip-path="url(#a)">
    <path fill="#202A2B" d="M159.5 319a159.5 159.5 0 1 0 0-319 159.5 159.5 0 0 0 0 319Z"/>
    <path fill="#fff" d="m54.8 113.4 9.6-27c.4-1 1.2-2 2.2-2.3l106-42.6a36.6 36.6 0 0 1 47.7 20.3l41.4 103c3.4 8.2 3.6 17.4.6 25.8l-.3.9-8.4 23.6a36.8 36.8 0 0 1-20.7 21.4l-108 43.4c-2 .8-4.2-.1-5-2.1L55 116c-.4-.9-.4-1.8 0-2.7Z"/>
    <path fill="#D0F8E6" d="m72.4 91.1 103.4-41.6a28 28 0 0 1 36.5 15.6L253.7 168a28 28 0 0 1 .4 19.7l-.3.8a28 28 0 0 1-15.7 16L134.7 246 72.4 91Z"/>
    <path fill="#202A2B" d="M186.3 48.5a27 27 0 0 1 25 17l41.5 102.8a27 27 0 0 1 .4 19.1l-.3.8a27.1 27.1 0 0 1-15.1 15.4l-102.6 41.2L80 107.6l-6.4-16 102.6-41.2a27 27 0 0 1 10-2m0-1.9a29 29 0 0 0-10.8 2.1l-104.3 42 7.1 17.7 56 139 104.3-42a28.8 28.8 0 0 0 16.2-16.4l.3-.8a28.9 28.9 0 0 0-.4-20.5L213.2 64.7a29 29 0 0 0-27-18.2ZM63.1 114.6l8-22.6 6.7 16.5 55.8 138.8-8 22.6-62.5-155.3Z"/>
    <path fill="#202A2B" d="m71.2 93.3 6.1 15.4 55.8 138.6-7.5 21.3-62-154 7.6-21.3Zm0-2.7-8.6 24 63 156.7 8.6-24-56-139-7-17.7Z"/>
    <path fill="#fff" d="m135 248 103.8-41.7a29.7 29.7 0 0 0 11.7-8.5l-4.7 13.3-.4 1a28 28 0 0 1-15.8 16.4l-102.3 41.1 7.6-21.5Z"/>
    <path fill="#202A2B" d="m248.1 201.6-3.2 9.2-.4 1a27 27 0 0 1-15.3 15.7L129 268l6.8-19.1 103.5-41.6c3.3-1.4 6.3-3.2 9-5.6Zm6.6-12.7a28.9 28.9 0 0 1-16.2 16.5l-104.3 42-8.5 23.9 104.3-42a28.4 28.4 0 0 0 16.3-16.8l.4-1 8-22.6Z"/>
    <path stroke="#202A2B" stroke-miterlimit="10" stroke-width="4.8" d="m133.2 261.8 89.7-36.1m-73.3 23.4 89.7-36"/>
    <path fill="#202A2B" d="M134 162.4a9 9 0 0 1-7.4-.2 9 9 0 0 1-4.9-5.1 9 9 0 0 1 0-7.2 9 9 0 0 1 5.3-5 9.2 9.2 0 0 1 12.2 5.3c1 2.3 1 4.7 0 7.1a9 9 0 0 1-5.3 5Zm35.8-14.3c-2.5 1-5 1-7.3-.1a9.3 9.3 0 0 1-4.9-12.3 9 9 0 0 1 5.3-5A9.2 9.2 0 0 1 175 136c1 2.3 1 4.7 0 7.1a9 9 0 0 1-5.3 5Zm35.9-14.1c-2.5 1-5 .9-7.3-.2a9.4 9.4 0 0 1-5-5.2c-1-2.4-.9-4.8 0-7.1a9 9 0 0 1 5.3-5 9.2 9.2 0 0 1 12.2 5.3c1 2.3 1 4.7 0 7.1a9 9 0 0 1-5.2 5Z"/>
  </g>
  <defs>
    <clipPath id="a">
      <path fill="#fff" d="M0 0h319v319H0z"/>
    </clipPath>
  </defs>
</svg>
