<svg xmlns="http://www.w3.org/2000/svg" fill="none" viewBox="0 0 196 48">
  <path fill="#202A2B" d="M30.8 47H.4L8 3.3h30.5l-1.7 9.4H17.3L16 21h16.2l-1.7 9.5H14.2l-1.2 7h19.5L30.8 47Zm20.2.8c-4.7 0-8-1-10.1-3.1a8.4 8.4 0 0 1-2.3-6.2c0-.9 0-1.8.2-2.7l4.1-23.5L54 7.6l-1.7 10.2H69l-1.5 8.5H50.8l-1.3 6.9-.2 2c0 2.6 1.2 3.9 3.6 3.9a4 4 0 0 0 3.3-1.6 9.3 9.3 0 0 0 1.8-4.4h10c-1.6 9.8-7.3 14.7-17 14.7Zm56.4-.8.3-9.5H97.6l-3 9.5H83L98.6 3.3h20L119 47h-11.5Zm-2.5-33.1L100 29.3h8l.6-15.4h-3.8Zm31.2 23.7c0 1 .6 1.6 1.6 1.6 1.1 0 2-.2 2.7-.6l-.3 6.9c-1.9 1.5-4 2.3-6.5 2.3-3.7 0-6-.8-7.2-2.5-.7-1.1-1-2.3-1-3.6 0-1.3 0-2.4.2-3.4L132.2.9h10.4l-6.4 36v.7Zm20.9 1.6a5 5 0 0 0 2.5-.6l-.3 6.9a9.9 9.9 0 0 1-6.5 2.3c-3.7 0-6-.8-7.2-2.5-.7-1.1-1-2.4-1-3.6 0-1.3 0-2.4.2-3.4l3.6-20.5h10.4l-3.4 19.1-.1.7c0 1 .6 1.6 1.8 1.6ZM149.6 8c0-2.6.5-4.5 1.7-5.7 1.1-1.2 3-1.8 5.4-1.8 3.4 0 5 1.5 5 4.5 0 2.6-.5 4.4-1.7 5.6-1.1 1.2-3 1.8-5.4 1.8-3.4 0-5-1.5-5-4.4Zm42.1 29.6c0 1 .5 1.6 1.6 1.6 1 0 2-.2 2.7-.6l-.3 6.9c-2 1.5-4.1 2.3-6.6 2.3-4.4 0-6.9-1.6-7.4-4.8-2 3.2-5 4.8-8.9 4.8-6.6 0-10-2.8-10-8.5 0-1 .1-2 .4-3.2l1.2-7.1c.7-3.7 2.2-6.6 4.5-8.8 2.3-2.1 5.4-3.2 9.1-3.2 3.7 0 6.3.9 7.6 2.6l.3-1.8h9.2l-3.4 19.1v.7Zm-18-2.9-.1 1.5c0 .7.3 1.3 1 2 .5.6 1.5.9 3 .9a5 5 0 0 0 3.7-1.7l1.8-10.2c-.4-1-1.5-1.5-3.1-1.5-3.1 0-5 1.5-5.5 4.5l-.8 4.5Z"/>
</svg>
